<svg xmlns="http://www.w3.org/2000/svg" viewBox="0 0 420 850" role="img" aria-label="Workshop 14.435 by 5.406 metres with the restored earlier bathroom, Other 1, Other 2 and Other 3 layout" font-family="Segoe UI,Arial,sans-serif"><rect width="420" height="850" fill="#f7f6ed"/><rect x="224.50199999999998" y="22.184999999999995" width="138.176" height="768.23" fill="#e2e7d8" stroke="#a4b191" stroke-width="1"/><rect x="186.898" y="22.184999999999995" width="175.78" height="184.62" fill="#e2e7d8" stroke="#a4b191" stroke-width="1"/><rect x="30.497999999999994" y="711.195" width="192.10000000000002" height="79.22" fill="#e2e7d8" stroke="#a4b191" stroke-width="1"/><rect x="37.298" y="213.605" width="183.804" height="490.79" fill="#ece1d1" stroke="none" stroke-width="1"/><rect x="35.019999999999996" y="24.565000000000005" width="75.14" height="67.32000000000002" fill="#f3f4ed" stroke="none" stroke-width="1"/><rect x="110.16" y="24.565000000000005" width="72.42" height="67.32000000000002" fill="#f3f4ed" stroke="none" stroke-width="1"/><rect x="35.019999999999996" y="91.88500000000002" width="147.56" height="51.679999999999986" fill="#f3f4ed" stroke="none" stroke-width="1"/><rect x="35.019999999999996" y="143.565" width="75.14" height="63.23999999999998" fill="#dbeef2" stroke="none" stroke-width="1"/><rect x="110.16" y="143.565" width="114.342" height="63.23999999999998" fill="#e2e7d8" stroke="none" stroke-width="1"/><path d="M37.298,213.605L221.102,213.605" stroke="#4c5360" stroke-width="4" fill="none"/><path d="M37.298,704.395L221.102,704.395" stroke="#4c5360" stroke-width="4" fill="none"/><path d="M37.298,213.605L37.298,224.44843835616433" stroke="#4c5360" stroke-width="4" fill="none"/><path d="M37.298,224.44843835616433L37.298,268.6484383561644" stroke="#83a8a4" stroke-width="1.6" fill="none"/><path d="M37.298,268.6484383561644L37.298,519.8694315068493" stroke="#4c5360" stroke-width="4" fill="none"/><path d="M37.298,519.8694315068493L37.298,574.9494315068494" stroke="#83a8a4" stroke-width="1.6" fill="none"/><path d="M37.298,574.9494315068494L37.298,579.4077397260274" stroke="#4c5360" stroke-width="4" fill="none"/><path d="M37.298,579.4077397260274L37.298,627.6877397260273" stroke="#83a8a4" stroke-width="1.6" fill="none"/><path d="M37.298,627.6877397260273L37.298,704.395" stroke="#4c5360" stroke-width="4" fill="none"/><path d="M221.102,213.605L221.102,224.10075342465754" stroke="#4c5360" stroke-width="4" fill="none"/><path d="M221.102,224.10075342465754L197.98199999999997,224.10075342465754" stroke="#849176" stroke-width="1" fill="none"/><path d="M221.102,270.3407534246575L197.98199999999997,270.3407534246575" stroke="#849176" stroke-width="1" fill="none"/><path d="M221.102,270.3407534246575L221.102,590.5124657534246" stroke="#4c5360" stroke-width="4" fill="none"/><path d="M221.102,590.5124657534246L197.98199999999997,590.5124657534246" stroke="#849176" stroke-width="1" fill="none"/><path d="M221.102,636.7524657534246L197.98199999999997,636.7524657534246" stroke="#849176" stroke-width="1" fill="none"/><path d="M221.102,636.7524657534246L221.102,704.395" stroke="#4c5360" stroke-width="4" fill="none"/><path d="M35.019999999999996,24.565000000000005L182.58,24.565000000000005" stroke="#4c5360" stroke-width="4" fill="none"/><path d="M35.019999999999996,24.565000000000005L35.019999999999996,206.80499999999998" stroke="#4c5360" stroke-width="4" fill="none"/><path d="M182.58,24.565000000000005L182.58,143.565" stroke="#4c5360" stroke-width="4" fill="none"/><path d="M110.16,24.565000000000005L110.16,91.88500000000002" stroke="#4c5360" stroke-width="4" fill="none"/><path d="M68.67999999999998,91.88500000000002L110.16,91.88500000000002" stroke="#4c5360" stroke-width="4" fill="none"/><path d="M110.16,91.88500000000002L141.1,91.88500000000002" stroke="#4c5360" stroke-width="4" fill="none"/><path d="M35.019999999999996,143.565L63.58,143.565" stroke="#4c5360" stroke-width="4" fill="none"/><path d="M104.72,143.565L110.16,143.565" stroke="#4c5360" stroke-width="4" fill="none"/><path d="M110.16,143.565L110.16,206.80499999999998" stroke="#4c5360" stroke-width="4" fill="none"/><rect x="114.55795862068965" y="312.7378219178082" width="95.19999999999999" height="35.7" fill="#c9ad83" stroke="#ac916b" stroke-width="1"/><rect x="105.35943448275862" y="394.58257534246576" width="90.78" height="37.400000000000006" fill="#c9ad83" stroke="#ac916b" stroke-width="1"/><rect x="106.08750344827585" y="482.6558493150685" width="102" height="37.400000000000006" fill="#c9ad83" stroke="#ac916b" stroke-width="1"/><rect x="41.72550344827585" y="592.6293150684932" width="46.919999999999995" height="28.56" fill="#c9ad83" stroke="#ac916b" stroke-width="1"/><rect x="39.681751724137925" y="330.2034589041096" width="23.12" height="187" fill="#c9ad83" stroke="#ac916b" stroke-width="1"/><rect x="42.172896551724136" y="677.3717534246575" width="155.04" height="23.12" fill="#c9ad83" stroke="#ac916b" stroke-width="1"/><rect x="201.21657241379307" y="638.575308219178" width="16.32" height="47.599999999999994" fill="#bea67d" stroke="#907950" stroke-width="1"/><rect x="41.04175172413793" y="219.90547945205478" width="20.4" height="74.80000000000001" fill="#bea67d" stroke="#907950" stroke-width="1"/><path d="M41.04175172413793,244.83881278538811L61.44175172413792,244.83881278538811" stroke="#907950" stroke-width="1" fill="none"/><path d="M41.04175172413793,269.7721461187214L61.44175172413792,269.7721461187214" stroke="#907950" stroke-width="1" fill="none"/><rect x="166.38028965517242" y="680.4394383561644" width="15.64" height="15.64" fill="#53645b" stroke="#edf0dd" stroke-width="1"/><rect x="132.1547172413793" y="680.4394383561644" width="15.64" height="15.64" fill="#53645b" stroke="#edf0dd" stroke-width="1"/><rect x="100.97999999999999" y="215.985" width="56.44" height="2.55" fill="#253f31" stroke="none" stroke-width="1"/><g transform="translate(128.49795862068964,298.1178219178082) rotate(-180)"><rect x="-8.3" y="-7.8" width="16.6" height="15.6" rx="1.8" fill="#647963" stroke="#f0f3e8" stroke-width=".7"/><path d="M-9.4 2v8h18.8V2" stroke="#344b3b" fill="none" stroke-width="2"/></g><g transform="translate(162.15795862068964,298.1178219178082) rotate(-180)"><rect x="-8.3" y="-7.8" width="16.6" height="15.6" rx="1.8" fill="#647963" stroke="#f0f3e8" stroke-width=".7"/><path d="M-9.4 2v8h18.8V2" stroke="#344b3b" fill="none" stroke-width="2"/></g><g transform="translate(195.81795862068964,298.1178219178082) rotate(-180)"><rect x="-8.3" y="-7.8" width="16.6" height="15.6" rx="1.8" fill="#647963" stroke="#f0f3e8" stroke-width=".7"/><path d="M-9.4 2v8h18.8V2" stroke="#344b3b" fill="none" stroke-width="2"/></g><g transform="translate(128.49795862068964,363.0578219178082) rotate(0)"><rect x="-8.3" y="-7.8" width="16.6" height="15.6" rx="1.8" fill="#647963" stroke="#f0f3e8" stroke-width=".7"/><path d="M-9.4 2v8h18.8V2" stroke="#344b3b" fill="none" stroke-width="2"/></g><g transform="translate(195.81795862068964,363.0578219178082) rotate(0)"><rect x="-8.3" y="-7.8" width="16.6" height="15.6" rx="1.8" fill="#647963" stroke="#f0f3e8" stroke-width=".7"/><path d="M-9.4 2v8h18.8V2" stroke="#344b3b" fill="none" stroke-width="2"/></g><g transform="translate(150.74943448275863,379.9625753424658) rotate(-180)"><rect x="-8.3" y="-7.8" width="16.6" height="15.6" rx="1.8" fill="#647963" stroke="#f0f3e8" stroke-width=".7"/><path d="M-9.4 2v8h18.8V2" stroke="#344b3b" fill="none" stroke-width="2"/></g><g transform="translate(120.02750344827585,468.0358493150685) rotate(-180)"><rect x="-8.3" y="-7.8" width="16.6" height="15.6" rx="1.8" fill="#647963" stroke="#f0f3e8" stroke-width=".7"/><path d="M-9.4 2v8h18.8V2" stroke="#344b3b" fill="none" stroke-width="2"/></g><g transform="translate(157.08750344827584,468.0358493150685) rotate(-180)"><rect x="-8.3" y="-7.8" width="16.6" height="15.6" rx="1.8" fill="#647963" stroke="#f0f3e8" stroke-width=".7"/><path d="M-9.4 2v8h18.8V2" stroke="#344b3b" fill="none" stroke-width="2"/></g><g transform="translate(194.14750344827587,468.0358493150685) rotate(-180)"><rect x="-8.3" y="-7.8" width="16.6" height="15.6" rx="1.8" fill="#647963" stroke="#f0f3e8" stroke-width=".7"/><path d="M-9.4 2v8h18.8V2" stroke="#344b3b" fill="none" stroke-width="2"/></g><g transform="translate(120.02750344827585,534.6758493150685) rotate(0)"><rect x="-8.3" y="-7.8" width="16.6" height="15.6" rx="1.8" fill="#647963" stroke="#f0f3e8" stroke-width=".7"/><path d="M-9.4 2v8h18.8V2" stroke="#344b3b" fill="none" stroke-width="2"/></g><g transform="translate(194.14750344827587,534.6758493150685) rotate(0)"><rect x="-8.3" y="-7.8" width="16.6" height="15.6" rx="1.8" fill="#647963" stroke="#f0f3e8" stroke-width=".7"/><path d="M-9.4 2v8h18.8V2" stroke="#344b3b" fill="none" stroke-width="2"/></g><g transform="translate(65.18550344827585,635.8093150684932) rotate(0)"><rect x="-8.3" y="-7.8" width="16.6" height="15.6" rx="1.8" fill="#647963" stroke="#f0f3e8" stroke-width=".7"/><path d="M-9.4 2v8h18.8V2" stroke="#344b3b" fill="none" stroke-width="2"/></g><g transform="translate(75.64331724137931,348.0680136986301) rotate(-90)"><rect x="-8.3" y="-7.8" width="16.6" height="15.6" rx="1.8" fill="#647963" stroke="#f0f3e8" stroke-width=".7"/><path d="M-9.4 2v8h18.8V2" stroke="#344b3b" fill="none" stroke-width="2"/></g><g transform="translate(75.64331724137931,373.2798287671233) rotate(-90)"><rect x="-8.3" y="-7.8" width="16.6" height="15.6" rx="1.8" fill="#647963" stroke="#f0f3e8" stroke-width=".7"/><path d="M-9.4 2v8h18.8V2" stroke="#344b3b" fill="none" stroke-width="2"/></g><g transform="translate(75.64331724137931,398.49164383561646) rotate(-90)"><rect x="-8.3" y="-7.8" width="16.6" height="15.6" rx="1.8" fill="#647963" stroke="#f0f3e8" stroke-width=".7"/><path d="M-9.4 2v8h18.8V2" stroke="#344b3b" fill="none" stroke-width="2"/></g><g transform="translate(75.64331724137931,423.7034589041096) rotate(-90)"><rect x="-8.3" y="-7.8" width="16.6" height="15.6" rx="1.8" fill="#647963" stroke="#f0f3e8" stroke-width=".7"/><path d="M-9.4 2v8h18.8V2" stroke="#344b3b" fill="none" stroke-width="2"/></g><g transform="translate(75.64331724137931,448.9152739726028) rotate(-90)"><rect x="-8.3" y="-7.8" width="16.6" height="15.6" rx="1.8" fill="#647963" stroke="#f0f3e8" stroke-width=".7"/><path d="M-9.4 2v8h18.8V2" stroke="#344b3b" fill="none" stroke-width="2"/></g><g transform="translate(75.64331724137931,474.12708904109587) rotate(-90)"><rect x="-8.3" y="-7.8" width="16.6" height="15.6" rx="1.8" fill="#647963" stroke="#f0f3e8" stroke-width=".7"/><path d="M-9.4 2v8h18.8V2" stroke="#344b3b" fill="none" stroke-width="2"/></g><g transform="translate(75.64331724137931,499.33890410958907) rotate(-90)"><rect x="-8.3" y="-7.8" width="16.6" height="15.6" rx="1.8" fill="#647963" stroke="#f0f3e8" stroke-width=".7"/><path d="M-9.4 2v8h18.8V2" stroke="#344b3b" fill="none" stroke-width="2"/></g><g transform="translate(53.77697931034482,531.2738698630137) rotate(90)"><rect x="-8.3" y="-7.8" width="16.6" height="15.6" rx="1.8" fill="#647963" stroke="#f0f3e8" stroke-width=".7"/><path d="M-9.4 2v8h18.8V2" stroke="#344b3b" fill="none" stroke-width="2"/></g><g transform="translate(53.77697931034482,554.804897260274) rotate(90)"><rect x="-8.3" y="-7.8" width="16.6" height="15.6" rx="1.8" fill="#647963" stroke="#f0f3e8" stroke-width=".7"/><path d="M-9.4 2v8h18.8V2" stroke="#344b3b" fill="none" stroke-width="2"/></g><g transform="translate(53.77697931034482,578.3359246575342) rotate(90)"><rect x="-8.3" y="-7.8" width="16.6" height="15.6" rx="1.8" fill="#647963" stroke="#f0f3e8" stroke-width=".7"/><path d="M-9.4 2v8h18.8V2" stroke="#344b3b" fill="none" stroke-width="2"/></g><g transform="translate(53.77697931034482,308.4014246575342) rotate(90)"><rect x="-8.3" y="-7.8" width="16.6" height="15.6" rx="1.8" fill="#647963" stroke="#f0f3e8" stroke-width=".7"/><path d="M-9.4 2v8h18.8V2" stroke="#344b3b" fill="none" stroke-width="2"/></g><g transform="translate(171.98196551724138,564.8896232876713) rotate(0)"><rect x="-8.3" y="-7.8" width="16.6" height="15.6" rx="1.8" fill="#647963" stroke="#f0f3e8" stroke-width=".7"/><path d="M-9.4 2v8h18.8V2" stroke="#344b3b" fill="none" stroke-width="2"/></g><g transform="translate(197.33424137931036,564.8896232876713) rotate(0)"><rect x="-8.3" y="-7.8" width="16.6" height="15.6" rx="1.8" fill="#647963" stroke="#f0f3e8" stroke-width=".7"/><path d="M-9.4 2v8h18.8V2" stroke="#344b3b" fill="none" stroke-width="2"/></g><g transform="translate(73.78,44.96499999999999) rotate(-180)"><rect x="-8.3" y="-7.8" width="16.6" height="15.6" rx="1.8" fill="#647963" stroke="#f0f3e8" stroke-width=".7"/><path d="M-9.4 2v8h18.8V2" stroke="#344b3b" fill="none" stroke-width="2"/></g><g transform="translate(134.29999999999998,44.96499999999999) rotate(-180)"><rect x="-8.3" y="-7.8" width="16.6" height="15.6" rx="1.8" fill="#647963" stroke="#f0f3e8" stroke-width=".7"/><path d="M-9.4 2v8h18.8V2" stroke="#344b3b" fill="none" stroke-width="2"/></g><g transform="translate(160.82,44.96499999999999) rotate(-180)"><rect x="-8.3" y="-7.8" width="16.6" height="15.6" rx="1.8" fill="#647963" stroke="#f0f3e8" stroke-width=".7"/><path d="M-9.4 2v8h18.8V2" stroke="#344b3b" fill="none" stroke-width="2"/></g><g transform="translate(324.09562068965516,664.056095890411) rotate(-90)"><rect x="-8.3" y="-7.8" width="16.6" height="15.6" rx="1.8" fill="#647963" stroke="#f0f3e8" stroke-width=".7"/><path d="M-9.4 2v8h18.8V2" stroke="#344b3b" fill="none" stroke-width="2"/></g><g transform="translate(324.09562068965516,701.0334246575343) rotate(-90)"><rect x="-8.3" y="-7.8" width="16.6" height="15.6" rx="1.8" fill="#647963" stroke="#f0f3e8" stroke-width=".7"/><path d="M-9.4 2v8h18.8V2" stroke="#344b3b" fill="none" stroke-width="2"/></g><g transform="translate(324.09562068965516,738.0107534246577) rotate(-90)"><rect x="-8.3" y="-7.8" width="16.6" height="15.6" rx="1.8" fill="#647963" stroke="#f0f3e8" stroke-width=".7"/><path d="M-9.4 2v8h18.8V2" stroke="#344b3b" fill="none" stroke-width="2"/></g><ellipse cx="50.65999999999999" cy="189.125" rx="7" ry="8.6" fill="#fff" stroke="#92a5a8"/><rect x="43.859999999999985" y="194.905" width="13.600000000000001" height="5.1" fill="#fff" stroke="#92a5a8" stroke-width="1"/><rect x="75.14" y="188.105" width="19.72" height="14.28" fill="#fff" stroke="#92a5a8" stroke-width="1"/><rect x="36.719999999999985" y="127.24499999999999" width="19.72" height="14.28" fill="#fff" stroke="#92a5a8" stroke-width="1"/><rect x="38.41999999999998" y="47.00499999999995" width="12.24" height="37.400000000000006" fill="#c9ad83" stroke="#92a5a8" stroke-width="1"/><text x="72.58999999999999" y="75.22500000000001" text-anchor="middle" fill="#465343" font-size="8">Other 3</text><text x="146.37" y="75.22500000000001" text-anchor="middle" fill="#465343" font-size="8">Other 2</text><text x="108.8" y="115.00500000000001" text-anchor="middle" fill="#465343" font-size="8">Other 1</text><text x="72.58999999999999" y="172.465" text-anchor="middle" fill="#465343" font-size="8">Bathroom</text><text x="167.331" y="178.58499999999998" text-anchor="middle" fill="#465343" font-size="8">LANDING</text><text x="129.2" y="262.48" text-anchor="middle" fill="#465343" font-size="10">WORKSHOP</text><text x="129.2" y="274.03999999999996" text-anchor="middle" fill="#465343" font-size="8">14.435 × 5.406 m</text><text x="274.788" y="114.49499999999999" text-anchor="middle" fill="#465343" font-size="8">COVERED LOBBY</text><text x="274.788" y="126.39499999999998" text-anchor="middle" fill="#465343" font-size="8">5.43 × 5.17 m</text><text x="126.54799999999999" y="750.805" text-anchor="middle" fill="#465343" font-size="8">COVERED BALCONY</text><text x="126.54799999999999" y="762.7049999999999" text-anchor="middle" fill="#465343" font-size="8">2.33 × 5.65 m</text><text x="139.39999999999998" y="674.56" text-anchor="middle" fill="#465343" font-size="7">PRINTER WORKBENCH</text><rect x="294.678" y="246.5" width="61.199999999999996" height="275.4" fill="#c1cbb3" stroke="#849476" stroke-width="1"/><path d="M294.678,511.95500000000004L355.87799999999993,511.95500000000004" stroke="#879778" stroke-width="0.6" fill="none"/><text x="303.85800000000006" y="518.4575" text-anchor="middle" fill="#465343" font-size="5">1</text><path d="M294.678,502.01L355.87799999999993,502.01" stroke="#879778" stroke-width="0.6" fill="none"/><text x="303.85800000000006" y="508.51250000000005" text-anchor="middle" fill="#465343" font-size="5">2</text><path d="M294.678,492.065L355.87799999999993,492.065" stroke="#879778" stroke-width="0.6" fill="none"/><text x="303.85800000000006" y="498.5675" text-anchor="middle" fill="#465343" font-size="5">3</text><path d="M294.678,482.12L355.87799999999993,482.12" stroke="#879778" stroke-width="0.6" fill="none"/><text x="303.85800000000006" y="488.6225" text-anchor="middle" fill="#465343" font-size="5">4</text><path d="M294.678,472.17499999999995L355.87799999999993,472.17499999999995" stroke="#879778" stroke-width="0.6" fill="none"/><text x="303.85800000000006" y="478.6775" text-anchor="middle" fill="#465343" font-size="5">5</text><path d="M294.678,462.23L355.87799999999993,462.23" stroke="#879778" stroke-width="0.6" fill="none"/><text x="303.85800000000006" y="468.7325" text-anchor="middle" fill="#465343" font-size="5">6</text><path d="M294.678,452.285L355.87799999999993,452.285" stroke="#879778" stroke-width="0.6" fill="none"/><text x="303.85800000000006" y="458.7875" text-anchor="middle" fill="#465343" font-size="5">7</text><path d="M294.678,442.34L355.87799999999993,442.34" stroke="#879778" stroke-width="0.6" fill="none"/><text x="303.85800000000006" y="448.8425" text-anchor="middle" fill="#465343" font-size="5">8</text><path d="M294.678,432.39500000000004L355.87799999999993,432.39500000000004" stroke="#879778" stroke-width="0.6" fill="none"/><text x="303.85800000000006" y="438.8975" text-anchor="middle" fill="#465343" font-size="5">9</text><path d="M294.678,422.45000000000005L355.87799999999993,422.45000000000005" stroke="#879778" stroke-width="0.6" fill="none"/><text x="303.85800000000006" y="428.95250000000004" text-anchor="middle" fill="#465343" font-size="5">10</text><path d="M294.678,412.505L355.87799999999993,412.505" stroke="#879778" stroke-width="0.6" fill="none"/><text x="303.85800000000006" y="419.0075" text-anchor="middle" fill="#465343" font-size="5">11</text><rect x="294.678" y="375.785" width="61.199999999999996" height="36.72" fill="#e1e7d6" stroke="#879778" stroke-width="0.6"/><path d="M294.678,375.785L355.87799999999993,375.785" stroke="#879778" stroke-width="0.6" fill="none"/><text x="303.85800000000006" y="395.67499999999995" text-anchor="middle" fill="#465343" font-size="5">12</text><text x="325.278" y="397.545" text-anchor="middle" fill="#465343" font-size="5.5">LANDING</text><path d="M294.678,365.84L355.87799999999993,365.84" stroke="#879778" stroke-width="0.6" fill="none"/><text x="303.85800000000006" y="372.3425" text-anchor="middle" fill="#465343" font-size="5">13</text><path d="M294.678,355.89500000000004L355.87799999999993,355.89500000000004" stroke="#879778" stroke-width="0.6" fill="none"/><text x="303.85800000000006" y="362.39750000000004" text-anchor="middle" fill="#465343" font-size="5">14</text><path d="M294.678,345.95000000000005L355.87799999999993,345.95000000000005" stroke="#879778" stroke-width="0.6" fill="none"/><text x="303.85800000000006" y="352.45250000000004" text-anchor="middle" fill="#465343" font-size="5">15</text><path d="M294.678,336.005L355.87799999999993,336.005" stroke="#879778" stroke-width="0.6" fill="none"/><text x="303.85800000000006" y="342.5075" text-anchor="middle" fill="#465343" font-size="5">16</text><path d="M294.678,326.06L355.87799999999993,326.06" stroke="#879778" stroke-width="0.6" fill="none"/><text x="303.85800000000006" y="332.5625" text-anchor="middle" fill="#465343" font-size="5">17</text><path d="M294.678,316.115L355.87799999999993,316.115" stroke="#879778" stroke-width="0.6" fill="none"/><text x="303.85800000000006" y="322.6175" text-anchor="middle" fill="#465343" font-size="5">18</text><path d="M294.678,306.17L355.87799999999993,306.17" stroke="#879778" stroke-width="0.6" fill="none"/><text x="303.85800000000006" y="312.6725" text-anchor="middle" fill="#465343" font-size="5">19</text><path d="M294.678,296.225L355.87799999999993,296.225" stroke="#879778" stroke-width="0.6" fill="none"/><text x="303.85800000000006" y="302.7275" text-anchor="middle" fill="#465343" font-size="5">20</text><path d="M294.678,286.28L355.87799999999993,286.28" stroke="#879778" stroke-width="0.6" fill="none"/><text x="303.85800000000006" y="292.7825" text-anchor="middle" fill="#465343" font-size="5">21</text><path d="M294.678,276.335L355.87799999999993,276.335" stroke="#879778" stroke-width="0.6" fill="none"/><text x="303.85800000000006" y="282.8375" text-anchor="middle" fill="#465343" font-size="5">22</text><path d="M294.678,266.39L355.87799999999993,266.39" stroke="#879778" stroke-width="0.6" fill="none"/><text x="303.85800000000006" y="272.8925" text-anchor="middle" fill="#465343" font-size="5">23</text><path d="M294.678,256.44499999999994L355.87799999999993,256.44499999999994" stroke="#879778" stroke-width="0.6" fill="none"/><text x="303.85800000000006" y="262.94749999999993" text-anchor="middle" fill="#465343" font-size="5">24</text><path d="M294.678,246.49999999999994L355.87799999999993,246.49999999999994" stroke="#879778" stroke-width="0.6" fill="none"/><text x="303.85800000000006" y="253.00249999999994" text-anchor="middle" fill="#465343" font-size="5">25</text><path d="M325.278,261.8v244.79999999999998l-4 -7m4 7l4 -7" fill="none" stroke="#f6f8e9" stroke-width="1.5"/><text x="256.7" y="462.4" transform="rotate(90 256.7 462.4)" text-anchor="middle" font-size="9" letter-spacing="2" fill="#6c7f5d">VERANDA</text><path d="M37.298,197.2L221.102,197.2" stroke="#7d8478" stroke-width="0.6" fill="none"/><path d="M37.298,194.48L37.298,199.92" stroke="#7d8478" stroke-width="0.6" fill="none"/><path d="M221.102,194.48L221.102,199.92" stroke="#7d8478" stroke-width="0.6" fill="none"/><text x="129.2" y="193.12" text-anchor="middle" fill="#465343" font-size="8">5.406 m clear</text><path d="M14.279999999999998,213.605L14.279999999999998,704.395" stroke="#7d8478" stroke-width="0.6" fill="none"/><text transform="translate(9.519999999999992,459) rotate(-90)" text-anchor="middle" font-size="8" fill="#697660">14.435 m clear</text><circle id="map-marker" r="4.5" cx="390" cy="820" fill="#406a40" stroke="white" stroke-width="1.5"/><text x="210" y="814" text-anchor="middle" font-size="8" fill="#6e7e65">FIRST FLOOR +3.75 M · PDF WORKSHOP DIMENSIONS</text><text x="210" y="831" text-anchor="middle" font-size="7" fill="#8a9682">Earlier annex layout restored; unlabelled offsets remain estimates.</text></svg>